<svg width="1920" height="1080" viewBox="0 0 1920 1080" fill="none" xmlns="http://www.w3.org/2000/svg">
<g id="Desktop - 1" clip-path="url(#clip0_3_2)">
<rect width="1920" height="1080" fill="url(#paint0_linear_3_2)"/>
<ellipse id="Ellipse 1" cx="814" cy="1016.5" rx="314" ry="294.5" fill="url(#paint1_linear_3_2)"/>
<circle id="Ellipse 2" cx="459" cy="412" r="100" fill="url(#paint2_linear_3_2)"/>
<circle id="Ellipse 5" cx="1372" cy="152" r="50" fill="url(#paint3_linear_3_2)"/>
<circle id="Ellipse 6" cx="291" cy="665" r="50" fill="url(#paint4_linear_3_2)"/>
<circle id="Ellipse 12" cx="1222" cy="455" r="50" fill="url(#paint5_linear_3_2)"/>
<circle id="Ellipse 3" cx="992.712" cy="-18.2879" r="170" transform="rotate(-80.506 992.712 -18.2879)" fill="url(#paint6_linear_3_2)"/>
<path id="Subtract" fill-rule="evenodd" clip-rule="evenodd" d="M105.688 498.264C127.144 511.284 144.822 529.896 156.696 552.074L105.688 498.264ZM70.6478 483.101C64.1894 481.307 57.5433 479.963 50.7455 479.106L172.818 607.887C172.329 601.051 171.349 594.351 169.913 587.822L70.6478 483.101ZM172.706 629.573C172.284 634.727 171.582 639.803 170.616 644.784L13.7561 479.304C18.7826 478.614 23.894 478.191 29.0757 478.049L172.706 629.573ZM-3.58596 482.813L166.155 661.882C164.454 667.034 162.462 672.053 160.197 676.921L-18.9515 487.927C-13.9644 485.938 -8.8362 484.227 -3.58596 482.813ZM-33.2856 494.609L152.732 690.849C150.229 694.943 147.522 698.899 144.625 702.702L-45.5774 502.047C-41.62 499.366 -37.518 496.882 -33.2856 494.609ZM-57.5993 511.168L134.852 714.196C131.523 717.712 128.013 721.055 124.337 724.211L-68.1828 521.111C-64.8295 517.619 -61.2968 514.299 -57.5993 511.168ZM-78.0272 532.53L112.386 733.408C108.925 735.788 105.351 738.016 101.675 740.084L-85.2855 542.849C-83.0188 539.297 -80.5962 535.854 -78.0272 532.53ZM-92.9766 556.539L87.5664 747.004C82.5132 749.139 77.3086 750.986 71.9732 752.525L-99.3531 571.783C-97.5226 566.553 -95.3901 561.465 -92.9766 556.539ZM-104.076 588.605L54.8925 756.31C49.0311 757.228 43.0492 757.783 36.9706 757.952L-106.695 606.39C-106.198 600.345 -105.317 594.408 -104.076 588.605ZM-106.814 628.07L15.3071 756.901C8.48006 756.042 1.80592 754.693 -4.67885 752.89L-103.897 648.219C-105.341 641.663 -106.325 634.935 -106.814 628.07ZM-39.748 737.697C-61.1511 724.692 -78.7904 706.121 -90.6517 683.996L-39.748 737.697Z" fill="#281C57"/>
<path id="Subtract_2" fill-rule="evenodd" clip-rule="evenodd" d="M377.105 -140.326C399.305 -125.227 418.092 -105.537 432.082 -82.6341L377.105 -140.326ZM316.83 -167.339C310.784 -168.851 304.622 -170.073 298.36 -170.989L458.55 -2.88875C457.97 -9.15643 457.079 -15.3348 455.893 -21.4086L316.83 -167.339ZM458.424 33.2175C457.946 38.0124 457.286 42.7541 456.451 47.4359L247.693 -171.63C252.44 -172.201 257.241 -172.598 262.089 -172.812L458.424 33.2175ZM218.701 -165.815L449.014 75.8702C447.215 81.0344 445.195 86.0962 442.965 91.0445L203.115 -160.649C208.208 -162.588 213.407 -164.314 218.701 -165.815ZM179.159 -149.55L430.496 114.199C427.942 118.234 425.238 122.165 422.391 125.984L166.872 -142.152C170.864 -144.767 174.962 -147.235 179.159 -149.55ZM146.783 -126.994L406.063 145.089C402.651 148.582 399.104 151.943 395.429 155.163L136.081 -116.991C139.516 -120.461 143.087 -123.797 146.783 -126.994ZM119.634 -98.0121L375.46 170.447C372.132 172.661 368.728 174.772 365.255 176.776L112.717 -88.2325C114.92 -91.5679 117.227 -94.8293 119.634 -98.0121ZM99.8711 -65.4735L341.676 188.272C336.465 190.378 331.138 192.258 325.707 193.902L93.3347 -49.9441C95.2844 -55.2363 97.4674 -60.4169 99.8711 -65.4735ZM85.4589 -21.97L297.153 200.177C291.253 201.002 285.265 201.555 279.203 201.825L82.8227 -4.25287C83.4219 -10.2461 84.3052 -16.1563 85.4589 -21.97ZM82.6856 31.842L242.944 200.013C236.643 199.094 230.444 197.864 224.362 196.342L85.3583 50.4746C84.1636 44.3645 83.2674 38.1484 82.6856 31.842ZM164.028 169.267C141.911 154.202 123.188 134.579 109.228 111.762L164.028 169.267Z" fill="#281C57"/>
<path id="Subtract_3" fill-rule="evenodd" clip-rule="evenodd" d="M1623.81 401.792C1648.87 413.142 1668.92 433.569 1679.74 458.865L1623.81 401.792ZM1687.9 490.059L1592.74 392.938C1588.01 392.319 1583.18 392 1578.27 392C1576.99 392 1575.71 392.022 1574.43 392.065L1688.37 508.344C1688.49 506.257 1688.55 504.154 1688.55 502.037C1688.55 497.989 1688.33 493.993 1687.9 490.059ZM1685.42 528.189L1554.49 394.567C1548.81 395.813 1543.29 397.496 1537.98 399.579L1680.02 544.543C1682.23 539.287 1684.04 533.823 1685.42 528.189ZM1672.31 559.538L1522.78 406.929C1518.48 409.433 1514.36 412.219 1510.46 415.262L1663.69 571.642C1666.82 567.814 1669.71 563.771 1672.31 559.538ZM1652.67 583.26L1498.57 425.992C1495.06 429.655 1491.8 433.559 1488.82 437.677L1640.75 592.726C1644.94 589.844 1648.92 586.679 1652.67 583.26ZM1626.48 601.03L1480.18 451.719C1478.07 455.812 1476.2 460.053 1474.61 464.424L1613.63 606.298C1618.04 604.807 1622.34 603.044 1626.48 601.03ZM1595.57 610.728L1469.76 482.338C1468.6 488.729 1468 495.312 1468 502.037C1468 502.383 1468 502.729 1468 503.075L1574.75 612.018C1575.92 612.055 1577.1 612.073 1578.27 612.073C1584.16 612.073 1589.93 611.614 1595.57 610.728ZM1548.4 607.989C1510.72 597.432 1481.2 567.395 1471.45 529.452L1548.4 607.989Z" fill="#281C57"/>
<circle id="Ellipse 4" cx="1806.91" cy="640.908" r="200" transform="rotate(-9.02867 1806.91 640.908)" fill="url(#paint7_linear_3_2)">
 
</circle>
<g id="Ellipse 7" filter="url(#filter0_d_3_2)">
<path d="M1144 1048.5C1144 1218.24 1002.16 1356 827 1356C651.84 1356 510 1218.24 510 1048.5C510 878.757 651.84 741 827 741C1002.16 741 1144 878.757 1144 1048.5Z" stroke="#FF00C2" stroke-width="6" shape-rendering="crispEdges"/>
</g>
<g id="Ellipse 8" filter="url(#filter1_d_3_2)">
<circle cx="480" cy="429" r="97" stroke="#FF00C2" stroke-width="6" shape-rendering="crispEdges"/>

</g>
<g id="Ellipse 9" filter="url(#filter2_d_3_2)">
<circle cx="314" cy="679" r="38" stroke="#FF00C2" stroke-width="4" shape-rendering="crispEdges"/>
</g>
<g id="Ellipse 13" filter="url(#filter3_d_3_2)">
<circle cx="1248" cy="469" r="38" stroke="#FF00C2" stroke-width="4" shape-rendering="crispEdges"/>
</g>
<g id="Ellipse 10" filter="url(#filter4_d_3_2)">
<circle cx="1363" cy="172" r="37" stroke="#FF00C2" stroke-width="6" shape-rendering="crispEdges"/>
</g>
<g id="Line 4" filter="url(#filter5_d_3_2)">
<line x1="1320" y1="1013.99" x2="1320.99" y2="727.993" stroke="#FF00C2" stroke-width="4"/>
</g>
<g id="Line 5" filter="url(#filter6_d_3_2)">
<line x1="1690" y1="199.98" x2="1692" y2="2.9797" stroke="#FF00C2" stroke-width="4"/>
</g>
<g id="Line 6" filter="url(#filter7_d_3_2)">
<line x1="1339" y1="935.969" x2="1341" y2="807.969" stroke="#FF00C2" stroke-width="4"/>
</g>
<g id="Line 7" filter="url(#filter8_d_3_2)">
<line x1="1712" y1="145.969" x2="1714" y2="17.9687" stroke="#FF00C2" stroke-width="4"/>
</g>
<g id="Line 8" filter="url(#filter9_d_3_2)">
<line x1="861" y1="428.969" x2="863" y2="300.969" stroke="#FF00C2" stroke-width="4"/>
</g>
<g id="Line 9" filter="url(#filter10_d_3_2)">
<line x1="251" y1="411.988" x2="252" y2="247.988" stroke="#FF00C2" stroke-width="4"/>
</g>
<g id="Line 10" filter="url(#filter11_d_3_2)">
<line x1="248.001" y1="545.933" x2="251.001" y2="456.933" stroke="#FF00C2" stroke-width="4"/>
</g>
<g id="Line 14" filter="url(#filter12_d_3_2)">
<line x1="201.001" y1="972.933" x2="204.001" y2="883.933" stroke="#FF00C2" stroke-width="4"/>
</g>
<g id="Line 11" filter="url(#filter13_d_3_2)">
<line x1="699.001" y1="285.933" x2="702.001" y2="196.933" stroke="#FF00C2" stroke-width="4"/>
</g>
<g id="Line 12" filter="url(#filter14_d_3_2)">
<line x1="1247" y1="728.041" x2="1246" y2="679.041" stroke="#FF00C2" stroke-width="4"/>
</g>
<g id="Line 15" filter="url(#filter15_d_3_2)">
<line x1="178" y1="679.041" x2="177" y2="630.041" stroke="#FF00C2" stroke-width="4"/>
</g>
<g id="Line 13" filter="url(#filter16_d_3_2)">
<line x1="1247" y1="824.041" x2="1246" y2="775.041" stroke="#FF00C2" stroke-width="4"/>
</g>
<g id="Ellipse 11" filter="url(#filter17_d_3_2)">
<path d="M1973 663.5C1973 760.595 1891.18 839.5 1790 839.5C1688.82 839.5 1607 760.595 1607 663.5C1607 566.405 1688.82 487.5 1790 487.5C1891.18 487.5 1973 566.405 1973 663.5Z" stroke="#FF00C2" stroke-width="6" shape-rendering="crispEdges"/>
</g>
<g id="Line 1" filter="url(#filter18_d_3_2)">
<line x1="178" y1="1048.99" x2="180" y2="702.988" stroke="#FF00C2" stroke-width="4"/>
</g>
<g id="Line 2" filter="url(#filter19_d_3_2)">
<line x1="1178" y1="307.989" x2="1179.98" y2="-38.0114" stroke="#FF00C2" stroke-width="4"/>
</g>
<g id="Line 3" filter="url(#filter20_d_3_2)">
<line x1="826" y1="690.993" x2="826.993" y2="404.993" stroke="#FF00C2" stroke-width="4"/>
</g>
<g id="Line 4_2" filter="url(#filter21_d_3_2)">
<line x1="703" y1="159.993" x2="703.993" y2="-126.007" stroke="#FF00C2" stroke-width="4"/>
</g>
<g id="Vector 1" filter="url(#filter22_d_3_2)">
<path d="M580.5 122L611.5 102L641 122" stroke="#FF00C2" stroke-width="5"/>
</g>
<g id="Vector 3" filter="url(#filter23_d_3_2)">
<path d="M581.5 195L612.5 175L642 195" stroke="#FF00C2" stroke-width="5"/>
</g>
<g id="Vector 5" filter="url(#filter24_d_3_2)">
<path d="M926.5 515L957.5 495L987 515" stroke="#FF00C2" stroke-width="5"/>
</g>
<g id="Vector 9" filter="url(#filter25_d_3_2)">
<path d="M87 398L118 378L147.5 398" stroke="#FF00C2" stroke-width="5"/>
</g>
<g id="Vector 7" filter="url(#filter26_d_3_2)">
<path d="M87.5 332L118.5 312L148 332" stroke="#FF00C2" stroke-width="5"/>
</g>
<g id="Vector 2" filter="url(#filter27_d_3_2)">
<path d="M580 155L611 135L640.5 155" stroke="#FF00C2" stroke-width="5"/>
</g>
<g id="Vector 6" filter="url(#filter28_d_3_2)">
<path d="M926 548L957 528L986.5 548" stroke="#FF00C2" stroke-width="5"/>
</g>
<g id="Vector 8" filter="url(#filter29_d_3_2)">
<path d="M87 365L118 345L147.5 365" stroke="#FF00C2" stroke-width="5"/>
</g>
<g id="Group 1">
<circle id="Ellipse 13_2" cx="25" cy="28" r="8" fill="#282436"/>
<circle id="Ellipse 14" cx="25" cy="52" r="8" fill="#282436"/>
<circle id="Ellipse 15" cx="25" cy="76" r="8" fill="#282436"/>
<circle id="Ellipse 16" cx="25" cy="100" r="8" fill="#282436"/>
<circle id="Ellipse 17" cx="25" cy="127" r="8" fill="#282436"/>
</g>
<g id="Group 2">
<circle id="Ellipse 13_3" cx="662" cy="219" r="8" fill="#282436"/>
<circle id="Ellipse 14_2" cx="662" cy="243" r="8" fill="#282436"/>
<circle id="Ellipse 15_2" cx="662" cy="267" r="8" fill="#282436"/>
<circle id="Ellipse 16_2" cx="662" cy="291" r="8" fill="#282436"/>
<circle id="Ellipse 17_2" cx="662" cy="318" r="8" fill="#282436"/>
</g>
<g id="Group 3">
<circle id="Ellipse 13_4" cx="1891" cy="36" r="8" fill="#282436"/>
<circle id="Ellipse 14_3" cx="1891" cy="60" r="8" fill="#282436"/>
<circle id="Ellipse 15_3" cx="1891" cy="84" r="8" fill="#282436"/>
<circle id="Ellipse 16_3" cx="1891" cy="108" r="8" fill="#282436"/>
<circle id="Ellipse 17_3" cx="1891" cy="135" r="8" fill="#282436"/>
</g>
<g id="Group 4">
<circle id="Ellipse 13_5" cx="1891" cy="160" r="8" fill="#282436"/>
<circle id="Ellipse 14_4" cx="1891" cy="184" r="8" fill="#282436"/>
<circle id="Ellipse 15_4" cx="1891" cy="208" r="8" fill="#282436"/>
<circle id="Ellipse 16_4" cx="1891" cy="232" r="8" fill="#282436"/>
<circle id="Ellipse 17_4" cx="1891" cy="259" r="8" fill="#282436"/>
</g>
<g id="Group 6">
<circle id="Ellipse 13_6" cx="1891" cy="937" r="8" fill="#282436"/>
<circle id="Ellipse 14_5" cx="1891" cy="961" r="8" fill="#282436"/>
<circle id="Ellipse 15_5" cx="1891" cy="985" r="8" fill="#282436"/>
<circle id="Ellipse 16_5" cx="1891" cy="1009" r="8" fill="#282436"/>
<circle id="Ellipse 17_5" cx="1891" cy="1036" r="8" fill="#282436"/>
</g>
<g id="Group 7">
<circle id="Ellipse 13_7" cx="1097" cy="647" r="8" transform="rotate(-90 1097 647)" fill="#282436"/>
<circle id="Ellipse 14_6" cx="1121" cy="647" r="8" transform="rotate(-90 1121 647)" fill="#282436"/>
<circle id="Ellipse 15_6" cx="1145" cy="647" r="8" transform="rotate(-90 1145 647)" fill="#282436"/>
<circle id="Ellipse 16_6" cx="1169" cy="647" r="8" transform="rotate(-90 1169 647)" fill="#282436"/>
<circle id="Ellipse 17_6" cx="1196" cy="647" r="8" transform="rotate(-90 1196 647)" fill="#282436"/>
</g>
<g id="Group 5">
<circle id="Ellipse 13_8" cx="1330" cy="17" r="8" transform="rotate(-90 1330 17)" fill="#282436"/>
<circle id="Ellipse 14_7" cx="1354" cy="17" r="8" transform="rotate(-90 1354 17)" fill="#282436"/>
<circle id="Ellipse 15_7" cx="1378" cy="17" r="8" transform="rotate(-90 1378 17)" fill="#282436"/>
<circle id="Ellipse 16_7" cx="1402" cy="17" r="8" transform="rotate(-90 1402 17)" fill="#282436"/>
<circle id="Ellipse 17_7" cx="1429" cy="17" r="8" transform="rotate(-90 1429 17)" fill="#282436"/>
</g>
</g>
<defs>
<filter id="filter0_d_3_2" x="493" y="728" width="668" height="649" filterUnits="userSpaceOnUse" color-interpolation-filters="sRGB">
<feFlood flood-opacity="0" result="BackgroundImageFix"/>
<feColorMatrix in="SourceAlpha" type="matrix" values="0 0 0 0 0 0 0 0 0 0 0 0 0 0 0 0 0 0 127 0" result="hardAlpha"/>
<feOffset dy="4"/>
<feGaussianBlur stdDeviation="7"/>
<feComposite in2="hardAlpha" operator="out"/>
<feColorMatrix type="matrix" values="0 0 0 0 1 0 0 0 0 0 0 0 0 0 0.760784 0 0 0 0.53 0"/>
<feBlend mode="normal" in2="BackgroundImageFix" result="effect1_dropShadow_3_2"/>
<feBlend mode="normal" in="SourceGraphic" in2="effect1_dropShadow_3_2" result="shape"/>
</filter>
<filter id="filter1_d_3_2" x="366" y="319" width="228" height="228" filterUnits="userSpaceOnUse" color-interpolation-filters="sRGB">
<feFlood flood-opacity="0" result="BackgroundImageFix"/>
<feColorMatrix in="SourceAlpha" type="matrix" values="0 0 0 0 0 0 0 0 0 0 0 0 0 0 0 0 0 0 127 0" result="hardAlpha"/>
<feOffset dy="4"/>
<feGaussianBlur stdDeviation="7"/>
<feComposite in2="hardAlpha" operator="out"/>
<feColorMatrix type="matrix" values="0 0 0 0 1 0 0 0 0 0 0 0 0 0 0.760784 0 0 0 0.53 0"/>
<feBlend mode="normal" in2="BackgroundImageFix" result="effect1_dropShadow_3_2"/>
<feBlend mode="normal" in="SourceGraphic" in2="effect1_dropShadow_3_2" result="shape"/>
</filter>
<filter id="filter2_d_3_2" x="260" y="629" width="108" height="108" filterUnits="userSpaceOnUse" color-interpolation-filters="sRGB">
<feFlood flood-opacity="0" result="BackgroundImageFix"/>
<feColorMatrix in="SourceAlpha" type="matrix" values="0 0 0 0 0 0 0 0 0 0 0 0 0 0 0 0 0 0 127 0" result="hardAlpha"/>
<feOffset dy="4"/>
<feGaussianBlur stdDeviation="7"/>
<feComposite in2="hardAlpha" operator="out"/>
<feColorMatrix type="matrix" values="0 0 0 0 1 0 0 0 0 0 0 0 0 0 0.760784 0 0 0 0.53 0"/>
<feBlend mode="normal" in2="BackgroundImageFix" result="effect1_dropShadow_3_2"/>
<feBlend mode="normal" in="SourceGraphic" in2="effect1_dropShadow_3_2" result="shape"/>
</filter>
<filter id="filter3_d_3_2" x="1194" y="419" width="108" height="108" filterUnits="userSpaceOnUse" color-interpolation-filters="sRGB">
<feFlood flood-opacity="0" result="BackgroundImageFix"/>
<feColorMatrix in="SourceAlpha" type="matrix" values="0 0 0 0 0 0 0 0 0 0 0 0 0 0 0 0 0 0 127 0" result="hardAlpha"/>
<feOffset dy="4"/>
<feGaussianBlur stdDeviation="7"/>
<feComposite in2="hardAlpha" operator="out"/>
<feColorMatrix type="matrix" values="0 0 0 0 1 0 0 0 0 0 0 0 0 0 0.760784 0 0 0 0.53 0"/>
<feBlend mode="normal" in2="BackgroundImageFix" result="effect1_dropShadow_3_2"/>
<feBlend mode="normal" in="SourceGraphic" in2="effect1_dropShadow_3_2" result="shape"/>
</filter>
<filter id="filter4_d_3_2" x="1309" y="122" width="108" height="108" filterUnits="userSpaceOnUse" color-interpolation-filters="sRGB">
<feFlood flood-opacity="0" result="BackgroundImageFix"/>
<feColorMatrix in="SourceAlpha" type="matrix" values="0 0 0 0 0 0 0 0 0 0 0 0 0 0 0 0 0 0 127 0" result="hardAlpha"/>
<feOffset dy="4"/>
<feGaussianBlur stdDeviation="7"/>
<feComposite in2="hardAlpha" operator="out"/>
<feColorMatrix type="matrix" values="0 0 0 0 1 0 0 0 0 0 0 0 0 0 0.760784 0 0 0 0.53 0"/>
<feBlend mode="normal" in2="BackgroundImageFix" result="effect1_dropShadow_3_2"/>
<feBlend mode="normal" in="SourceGraphic" in2="effect1_dropShadow_3_2" result="shape"/>
</filter>
<filter id="filter5_d_3_2" x="1304" y="717.986" width="32.993" height="314.014" filterUnits="userSpaceOnUse" color-interpolation-filters="sRGB">
<feFlood flood-opacity="0" result="BackgroundImageFix"/>
<feColorMatrix in="SourceAlpha" type="matrix" values="0 0 0 0 0 0 0 0 0 0 0 0 0 0 0 0 0 0 127 0" result="hardAlpha"/>
<feOffset dy="4"/>
<feGaussianBlur stdDeviation="7"/>
<feComposite in2="hardAlpha" operator="out"/>
<feColorMatrix type="matrix" values="0 0 0 0 1 0 0 0 0 0 0 0 0 0 0.760784 0 0 0 0.53 0"/>
<feBlend mode="normal" in2="BackgroundImageFix" result="effect1_dropShadow_3_2"/>
<feBlend mode="normal" in="SourceGraphic" in2="effect1_dropShadow_3_2" result="shape"/>
</filter>
<filter id="filter6_d_3_2" x="1674" y="-7.04061" width="33.9998" height="225.041" filterUnits="userSpaceOnUse" color-interpolation-filters="sRGB">
<feFlood flood-opacity="0" result="BackgroundImageFix"/>
<feColorMatrix in="SourceAlpha" type="matrix" values="0 0 0 0 0 0 0 0 0 0 0 0 0 0 0 0 0 0 127 0" result="hardAlpha"/>
<feOffset dy="4"/>
<feGaussianBlur stdDeviation="7"/>
<feComposite in2="hardAlpha" operator="out"/>
<feColorMatrix type="matrix" values="0 0 0 0 1 0 0 0 0 0 0 0 0 0 0.760784 0 0 0 0.53 0"/>
<feBlend mode="normal" in2="BackgroundImageFix" result="effect1_dropShadow_3_2"/>
<feBlend mode="normal" in="SourceGraphic" in2="effect1_dropShadow_3_2" result="shape"/>
</filter>
<filter id="filter7_d_3_2" x="1323" y="797.938" width="33.9995" height="156.062" filterUnits="userSpaceOnUse" color-interpolation-filters="sRGB">
<feFlood flood-opacity="0" result="BackgroundImageFix"/>
<feColorMatrix in="SourceAlpha" type="matrix" values="0 0 0 0 0 0 0 0 0 0 0 0 0 0 0 0 0 0 127 0" result="hardAlpha"/>
<feOffset dy="4"/>
<feGaussianBlur stdDeviation="7"/>
<feComposite in2="hardAlpha" operator="out"/>
<feColorMatrix type="matrix" values="0 0 0 0 1 0 0 0 0 0 0 0 0 0 0.760784 0 0 0 0.53 0"/>
<feBlend mode="normal" in2="BackgroundImageFix" result="effect1_dropShadow_3_2"/>
<feBlend mode="normal" in="SourceGraphic" in2="effect1_dropShadow_3_2" result="shape"/>
</filter>
<filter id="filter8_d_3_2" x="1696" y="7.9375" width="33.9995" height="156.062" filterUnits="userSpaceOnUse" color-interpolation-filters="sRGB">
<feFlood flood-opacity="0" result="BackgroundImageFix"/>
<feColorMatrix in="SourceAlpha" type="matrix" values="0 0 0 0 0 0 0 0 0 0 0 0 0 0 0 0 0 0 127 0" result="hardAlpha"/>
<feOffset dy="4"/>
<feGaussianBlur stdDeviation="7"/>
<feComposite in2="hardAlpha" operator="out"/>
<feColorMatrix type="matrix" values="0 0 0 0 1 0 0 0 0 0 0 0 0 0 0.760784 0 0 0 0.53 0"/>
<feBlend mode="normal" in2="BackgroundImageFix" result="effect1_dropShadow_3_2"/>
<feBlend mode="normal" in="SourceGraphic" in2="effect1_dropShadow_3_2" result="shape"/>
</filter>
<filter id="filter9_d_3_2" x="845" y="290.938" width="33.9995" height="156.062" filterUnits="userSpaceOnUse" color-interpolation-filters="sRGB">
<feFlood flood-opacity="0" result="BackgroundImageFix"/>
<feColorMatrix in="SourceAlpha" type="matrix" values="0 0 0 0 0 0 0 0 0 0 0 0 0 0 0 0 0 0 127 0" result="hardAlpha"/>
<feOffset dy="4"/>
<feGaussianBlur stdDeviation="7"/>
<feComposite in2="hardAlpha" operator="out"/>
<feColorMatrix type="matrix" values="0 0 0 0 1 0 0 0 0 0 0 0 0 0 0.760784 0 0 0 0.53 0"/>
<feBlend mode="normal" in2="BackgroundImageFix" result="effect1_dropShadow_3_2"/>
<feBlend mode="normal" in="SourceGraphic" in2="effect1_dropShadow_3_2" result="shape"/>
</filter>
<filter id="filter10_d_3_2" x="235" y="237.976" width="32.9999" height="192.024" filterUnits="userSpaceOnUse" color-interpolation-filters="sRGB">
<feFlood flood-opacity="0" result="BackgroundImageFix"/>
<feColorMatrix in="SourceAlpha" type="matrix" values="0 0 0 0 0 0 0 0 0 0 0 0 0 0 0 0 0 0 127 0" result="hardAlpha"/>
<feOffset dy="4"/>
<feGaussianBlur stdDeviation="7"/>
<feComposite in2="hardAlpha" operator="out"/>
<feColorMatrix type="matrix" values="0 0 0 0 1 0 0 0 0 0 0 0 0 0 0.760784 0 0 0 0.53 0"/>
<feBlend mode="normal" in2="BackgroundImageFix" result="effect1_dropShadow_3_2"/>
<feBlend mode="normal" in="SourceGraphic" in2="effect1_dropShadow_3_2" result="shape"/>
</filter>
<filter id="filter11_d_3_2" x="232.002" y="446.865" width="34.9977" height="117.135" filterUnits="userSpaceOnUse" color-interpolation-filters="sRGB">
<feFlood flood-opacity="0" result="BackgroundImageFix"/>
<feColorMatrix in="SourceAlpha" type="matrix" values="0 0 0 0 0 0 0 0 0 0 0 0 0 0 0 0 0 0 127 0" result="hardAlpha"/>
<feOffset dy="4"/>
<feGaussianBlur stdDeviation="7"/>
<feComposite in2="hardAlpha" operator="out"/>
<feColorMatrix type="matrix" values="0 0 0 0 1 0 0 0 0 0 0 0 0 0 0.760784 0 0 0 0.53 0"/>
<feBlend mode="normal" in2="BackgroundImageFix" result="effect1_dropShadow_3_2"/>
<feBlend mode="normal" in="SourceGraphic" in2="effect1_dropShadow_3_2" result="shape"/>
</filter>
<filter id="filter12_d_3_2" x="185.002" y="873.865" width="34.9977" height="117.135" filterUnits="userSpaceOnUse" color-interpolation-filters="sRGB">
<feFlood flood-opacity="0" result="BackgroundImageFix"/>
<feColorMatrix in="SourceAlpha" type="matrix" values="0 0 0 0 0 0 0 0 0 0 0 0 0 0 0 0 0 0 127 0" result="hardAlpha"/>
<feOffset dy="4"/>
<feGaussianBlur stdDeviation="7"/>
<feComposite in2="hardAlpha" operator="out"/>
<feColorMatrix type="matrix" values="0 0 0 0 1 0 0 0 0 0 0 0 0 0 0.760784 0 0 0 0.53 0"/>
<feBlend mode="normal" in2="BackgroundImageFix" result="effect1_dropShadow_3_2"/>
<feBlend mode="normal" in="SourceGraphic" in2="effect1_dropShadow_3_2" result="shape"/>
</filter>
<filter id="filter13_d_3_2" x="683.002" y="186.865" width="34.9977" height="117.135" filterUnits="userSpaceOnUse" color-interpolation-filters="sRGB">
<feFlood flood-opacity="0" result="BackgroundImageFix"/>
<feColorMatrix in="SourceAlpha" type="matrix" values="0 0 0 0 0 0 0 0 0 0 0 0 0 0 0 0 0 0 127 0" result="hardAlpha"/>
<feOffset dy="4"/>
<feGaussianBlur stdDeviation="7"/>
<feComposite in2="hardAlpha" operator="out"/>
<feColorMatrix type="matrix" values="0 0 0 0 1 0 0 0 0 0 0 0 0 0 0.760784 0 0 0 0.53 0"/>
<feBlend mode="normal" in2="BackgroundImageFix" result="effect1_dropShadow_3_2"/>
<feBlend mode="normal" in="SourceGraphic" in2="effect1_dropShadow_3_2" result="shape"/>
</filter>
<filter id="filter14_d_3_2" x="1230" y="669" width="32.9991" height="77.0816" filterUnits="userSpaceOnUse" color-interpolation-filters="sRGB">
<feFlood flood-opacity="0" result="BackgroundImageFix"/>
<feColorMatrix in="SourceAlpha" type="matrix" values="0 0 0 0 0 0 0 0 0 0 0 0 0 0 0 0 0 0 127 0" result="hardAlpha"/>
<feOffset dy="4"/>
<feGaussianBlur stdDeviation="7"/>
<feComposite in2="hardAlpha" operator="out"/>
<feColorMatrix type="matrix" values="0 0 0 0 1 0 0 0 0 0 0 0 0 0 0.760784 0 0 0 0.53 0"/>
<feBlend mode="normal" in2="BackgroundImageFix" result="effect1_dropShadow_3_2"/>
<feBlend mode="normal" in="SourceGraphic" in2="effect1_dropShadow_3_2" result="shape"/>
</filter>
<filter id="filter15_d_3_2" x="161.001" y="620" width="32.9992" height="77.0816" filterUnits="userSpaceOnUse" color-interpolation-filters="sRGB">
<feFlood flood-opacity="0" result="BackgroundImageFix"/>
<feColorMatrix in="SourceAlpha" type="matrix" values="0 0 0 0 0 0 0 0 0 0 0 0 0 0 0 0 0 0 127 0" result="hardAlpha"/>
<feOffset dy="4"/>
<feGaussianBlur stdDeviation="7"/>
<feComposite in2="hardAlpha" operator="out"/>
<feColorMatrix type="matrix" values="0 0 0 0 1 0 0 0 0 0 0 0 0 0 0.760784 0 0 0 0.53 0"/>
<feBlend mode="normal" in2="BackgroundImageFix" result="effect1_dropShadow_3_2"/>
<feBlend mode="normal" in="SourceGraphic" in2="effect1_dropShadow_3_2" result="shape"/>
</filter>
<filter id="filter16_d_3_2" x="1230" y="765" width="32.9991" height="77.0816" filterUnits="userSpaceOnUse" color-interpolation-filters="sRGB">
<feFlood flood-opacity="0" result="BackgroundImageFix"/>
<feColorMatrix in="SourceAlpha" type="matrix" values="0 0 0 0 0 0 0 0 0 0 0 0 0 0 0 0 0 0 127 0" result="hardAlpha"/>
<feOffset dy="4"/>
<feGaussianBlur stdDeviation="7"/>
<feComposite in2="hardAlpha" operator="out"/>
<feColorMatrix type="matrix" values="0 0 0 0 1 0 0 0 0 0 0 0 0 0 0.760784 0 0 0 0.53 0"/>
<feBlend mode="normal" in2="BackgroundImageFix" result="effect1_dropShadow_3_2"/>
<feBlend mode="normal" in="SourceGraphic" in2="effect1_dropShadow_3_2" result="shape"/>
</filter>
<filter id="filter17_d_3_2" x="1590" y="474.5" width="400" height="386" filterUnits="userSpaceOnUse" color-interpolation-filters="sRGB">
<feFlood flood-opacity="0" result="BackgroundImageFix"/>
<feColorMatrix in="SourceAlpha" type="matrix" values="0 0 0 0 0 0 0 0 0 0 0 0 0 0 0 0 0 0 127 0" result="hardAlpha"/>
<feOffset dy="4"/>
<feGaussianBlur stdDeviation="7"/>
<feComposite in2="hardAlpha" operator="out"/>
<feColorMatrix type="matrix" values="0 0 0 0 1 0 0 0 0 0 0 0 0 0 0.760784 0 0 0 0.53 0"/>
<feBlend mode="normal" in2="BackgroundImageFix" result="effect1_dropShadow_3_2"/>
<feBlend mode="normal" in="SourceGraphic" in2="effect1_dropShadow_3_2" result="shape"/>
</filter>
<filter id="filter18_d_3_2" x="162" y="692.977" width="33.9999" height="374.023" filterUnits="userSpaceOnUse" color-interpolation-filters="sRGB">
<feFlood flood-opacity="0" result="BackgroundImageFix"/>
<feColorMatrix in="SourceAlpha" type="matrix" values="0 0 0 0 0 0 0 0 0 0 0 0 0 0 0 0 0 0 127 0" result="hardAlpha"/>
<feOffset dy="4"/>
<feGaussianBlur stdDeviation="7"/>
<feComposite in2="hardAlpha" operator="out"/>
<feColorMatrix type="matrix" values="0 0 0 0 1 0 0 0 0 0 0 0 0 0 0.760784 0 0 0 0.53 0"/>
<feBlend mode="normal" in2="BackgroundImageFix" result="effect1_dropShadow_3_2"/>
<feBlend mode="normal" in="SourceGraphic" in2="effect1_dropShadow_3_2" result="shape"/>
</filter>
<filter id="filter19_d_3_2" x="1162" y="-48.0229" width="33.9771" height="374.023" filterUnits="userSpaceOnUse" color-interpolation-filters="sRGB">
<feFlood flood-opacity="0" result="BackgroundImageFix"/>
<feColorMatrix in="SourceAlpha" type="matrix" values="0 0 0 0 0 0 0 0 0 0 0 0 0 0 0 0 0 0 127 0" result="hardAlpha"/>
<feOffset dy="4"/>
<feGaussianBlur stdDeviation="7"/>
<feComposite in2="hardAlpha" operator="out"/>
<feColorMatrix type="matrix" values="0 0 0 0 1 0 0 0 0 0 0 0 0 0 0.760784 0 0 0 0.53 0"/>
<feBlend mode="normal" in2="BackgroundImageFix" result="effect1_dropShadow_3_2"/>
<feBlend mode="normal" in="SourceGraphic" in2="effect1_dropShadow_3_2" result="shape"/>
</filter>
<filter id="filter20_d_3_2" x="810" y="394.986" width="32.993" height="314.014" filterUnits="userSpaceOnUse" color-interpolation-filters="sRGB">
<feFlood flood-opacity="0" result="BackgroundImageFix"/>
<feColorMatrix in="SourceAlpha" type="matrix" values="0 0 0 0 0 0 0 0 0 0 0 0 0 0 0 0 0 0 127 0" result="hardAlpha"/>
<feOffset dy="4"/>
<feGaussianBlur stdDeviation="7"/>
<feComposite in2="hardAlpha" operator="out"/>
<feColorMatrix type="matrix" values="0 0 0 0 1 0 0 0 0 0 0 0 0 0 0.760784 0 0 0 0.53 0"/>
<feBlend mode="normal" in2="BackgroundImageFix" result="effect1_dropShadow_3_2"/>
<feBlend mode="normal" in="SourceGraphic" in2="effect1_dropShadow_3_2" result="shape"/>
</filter>
<filter id="filter21_d_3_2" x="687" y="-136.014" width="32.993" height="314.014" filterUnits="userSpaceOnUse" color-interpolation-filters="sRGB">
<feFlood flood-opacity="0" result="BackgroundImageFix"/>
<feColorMatrix in="SourceAlpha" type="matrix" values="0 0 0 0 0 0 0 0 0 0 0 0 0 0 0 0 0 0 127 0" result="hardAlpha"/>
<feOffset dy="4"/>
<feGaussianBlur stdDeviation="7"/>
<feComposite in2="hardAlpha" operator="out"/>
<feColorMatrix type="matrix" values="0 0 0 0 1 0 0 0 0 0 0 0 0 0 0.760784 0 0 0 0.53 0"/>
<feBlend mode="normal" in2="BackgroundImageFix" result="effect1_dropShadow_3_2"/>
<feBlend mode="normal" in="SourceGraphic" in2="effect1_dropShadow_3_2" result="shape"/>
</filter>
<filter id="filter22_d_3_2" x="565.145" y="89.0028" width="91.2582" height="53.0979" filterUnits="userSpaceOnUse" color-interpolation-filters="sRGB">
<feFlood flood-opacity="0" result="BackgroundImageFix"/>
<feColorMatrix in="SourceAlpha" type="matrix" values="0 0 0 0 0 0 0 0 0 0 0 0 0 0 0 0 0 0 127 0" result="hardAlpha"/>
<feOffset dy="4"/>
<feGaussianBlur stdDeviation="7"/>
<feComposite in2="hardAlpha" operator="out"/>
<feColorMatrix type="matrix" values="0 0 0 0 1 0 0 0 0 0 0 0 0 0 0.760784 0 0 0 0.53 0"/>
<feBlend mode="normal" in2="BackgroundImageFix" result="effect1_dropShadow_3_2"/>
<feBlend mode="normal" in="SourceGraphic" in2="effect1_dropShadow_3_2" result="shape"/>
</filter>
<filter id="filter23_d_3_2" x="566.145" y="162.003" width="91.2582" height="53.0979" filterUnits="userSpaceOnUse" color-interpolation-filters="sRGB">
<feFlood flood-opacity="0" result="BackgroundImageFix"/>
<feColorMatrix in="SourceAlpha" type="matrix" values="0 0 0 0 0 0 0 0 0 0 0 0 0 0 0 0 0 0 127 0" result="hardAlpha"/>
<feOffset dy="4"/>
<feGaussianBlur stdDeviation="7"/>
<feComposite in2="hardAlpha" operator="out"/>
<feColorMatrix type="matrix" values="0 0 0 0 1 0 0 0 0 0 0 0 0 0 0.760784 0 0 0 0.53 0"/>
<feBlend mode="normal" in2="BackgroundImageFix" result="effect1_dropShadow_3_2"/>
<feBlend mode="normal" in="SourceGraphic" in2="effect1_dropShadow_3_2" result="shape"/>
</filter>
<filter id="filter24_d_3_2" x="911.145" y="482.003" width="91.2582" height="53.0979" filterUnits="userSpaceOnUse" color-interpolation-filters="sRGB">
<feFlood flood-opacity="0" result="BackgroundImageFix"/>
<feColorMatrix in="SourceAlpha" type="matrix" values="0 0 0 0 0 0 0 0 0 0 0 0 0 0 0 0 0 0 127 0" result="hardAlpha"/>
<feOffset dy="4"/>
<feGaussianBlur stdDeviation="7"/>
<feComposite in2="hardAlpha" operator="out"/>
<feColorMatrix type="matrix" values="0 0 0 0 1 0 0 0 0 0 0 0 0 0 0.760784 0 0 0 0.53 0"/>
<feBlend mode="normal" in2="BackgroundImageFix" result="effect1_dropShadow_3_2"/>
<feBlend mode="normal" in="SourceGraphic" in2="effect1_dropShadow_3_2" result="shape"/>
</filter>
<filter id="filter25_d_3_2" x="71.6447" y="365.003" width="91.2582" height="53.0979" filterUnits="userSpaceOnUse" color-interpolation-filters="sRGB">
<feFlood flood-opacity="0" result="BackgroundImageFix"/>
<feColorMatrix in="SourceAlpha" type="matrix" values="0 0 0 0 0 0 0 0 0 0 0 0 0 0 0 0 0 0 127 0" result="hardAlpha"/>
<feOffset dy="4"/>
<feGaussianBlur stdDeviation="7"/>
<feComposite in2="hardAlpha" operator="out"/>
<feColorMatrix type="matrix" values="0 0 0 0 1 0 0 0 0 0 0 0 0 0 0.760784 0 0 0 0.53 0"/>
<feBlend mode="normal" in2="BackgroundImageFix" result="effect1_dropShadow_3_2"/>
<feBlend mode="normal" in="SourceGraphic" in2="effect1_dropShadow_3_2" result="shape"/>
</filter>
<filter id="filter26_d_3_2" x="72.1447" y="299.003" width="91.2582" height="53.0979" filterUnits="userSpaceOnUse" color-interpolation-filters="sRGB">
<feFlood flood-opacity="0" result="BackgroundImageFix"/>
<feColorMatrix in="SourceAlpha" type="matrix" values="0 0 0 0 0 0 0 0 0 0 0 0 0 0 0 0 0 0 127 0" result="hardAlpha"/>
<feOffset dy="4"/>
<feGaussianBlur stdDeviation="7"/>
<feComposite in2="hardAlpha" operator="out"/>
<feColorMatrix type="matrix" values="0 0 0 0 1 0 0 0 0 0 0 0 0 0 0.760784 0 0 0 0.53 0"/>
<feBlend mode="normal" in2="BackgroundImageFix" result="effect1_dropShadow_3_2"/>
<feBlend mode="normal" in="SourceGraphic" in2="effect1_dropShadow_3_2" result="shape"/>
</filter>
<filter id="filter27_d_3_2" x="564.645" y="122.003" width="91.2582" height="53.0979" filterUnits="userSpaceOnUse" color-interpolation-filters="sRGB">
<feFlood flood-opacity="0" result="BackgroundImageFix"/>
<feColorMatrix in="SourceAlpha" type="matrix" values="0 0 0 0 0 0 0 0 0 0 0 0 0 0 0 0 0 0 127 0" result="hardAlpha"/>
<feOffset dy="4"/>
<feGaussianBlur stdDeviation="7"/>
<feComposite in2="hardAlpha" operator="out"/>
<feColorMatrix type="matrix" values="0 0 0 0 1 0 0 0 0 0 0 0 0 0 0.760784 0 0 0 0.53 0"/>
<feBlend mode="normal" in2="BackgroundImageFix" result="effect1_dropShadow_3_2"/>
<feBlend mode="normal" in="SourceGraphic" in2="effect1_dropShadow_3_2" result="shape"/>
</filter>
<filter id="filter28_d_3_2" x="910.645" y="515.003" width="91.2582" height="53.098" filterUnits="userSpaceOnUse" color-interpolation-filters="sRGB">
<feFlood flood-opacity="0" result="BackgroundImageFix"/>
<feColorMatrix in="SourceAlpha" type="matrix" values="0 0 0 0 0 0 0 0 0 0 0 0 0 0 0 0 0 0 127 0" result="hardAlpha"/>
<feOffset dy="4"/>
<feGaussianBlur stdDeviation="7"/>
<feComposite in2="hardAlpha" operator="out"/>
<feColorMatrix type="matrix" values="0 0 0 0 1 0 0 0 0 0 0 0 0 0 0.760784 0 0 0 0.53 0"/>
<feBlend mode="normal" in2="BackgroundImageFix" result="effect1_dropShadow_3_2"/>
<feBlend mode="normal" in="SourceGraphic" in2="effect1_dropShadow_3_2" result="shape"/>
</filter>
<filter id="filter29_d_3_2" x="71.6447" y="332.003" width="91.2582" height="53.0979" filterUnits="userSpaceOnUse" color-interpolation-filters="sRGB">
<feFlood flood-opacity="0" result="BackgroundImageFix"/>
<feColorMatrix in="SourceAlpha" type="matrix" values="0 0 0 0 0 0 0 0 0 0 0 0 0 0 0 0 0 0 127 0" result="hardAlpha"/>
<feOffset dy="4"/>
<feGaussianBlur stdDeviation="7"/>
<feComposite in2="hardAlpha" operator="out"/>
<feColorMatrix type="matrix" values="0 0 0 0 1 0 0 0 0 0 0 0 0 0 0.760784 0 0 0 0.53 0"/>
<feBlend mode="normal" in2="BackgroundImageFix" result="effect1_dropShadow_3_2"/>
<feBlend mode="normal" in="SourceGraphic" in2="effect1_dropShadow_3_2" result="shape"/>
</filter>
<linearGradient id="paint0_linear_3_2" x1="0" y1="1080" x2="1598.8" y2="-357.295" gradientUnits="userSpaceOnUse">
<stop stop-color="#170F38"/>
<stop offset="0.279167" stop-color="#53389E"/>
<stop offset="1" stop-color="#7E0EFD"/>
</linearGradient>
<linearGradient id="paint1_linear_3_2" x1="814" y1="722" x2="814" y2="1311" gradientUnits="userSpaceOnUse">
<stop stop-color="#853CDD"/>
<stop offset="0.648958" stop-color="#2D216C"/>
<stop offset="1" stop-color="#291D5D"/>
</linearGradient>
<linearGradient id="paint2_linear_3_2" x1="459" y1="312" x2="459" y2="512" gradientUnits="userSpaceOnUse">
<stop stop-color="#853CDD"/>
<stop offset="0.648958" stop-color="#2D216C"/>
<stop offset="1" stop-color="#291D5D"/>
</linearGradient>
<linearGradient id="paint3_linear_3_2" x1="1372" y1="102" x2="1372" y2="202" gradientUnits="userSpaceOnUse">
<stop stop-color="#853CDD"/>
<stop offset="0.648958" stop-color="#2D216C"/>
<stop offset="1" stop-color="#291D5D"/>
</linearGradient>
<linearGradient id="paint4_linear_3_2" x1="291" y1="615" x2="291" y2="715" gradientUnits="userSpaceOnUse">
<stop stop-color="#853CDD"/>
<stop offset="0.648958" stop-color="#2D216C"/>
<stop offset="1" stop-color="#291D5D"/>
</linearGradient>
<linearGradient id="paint5_linear_3_2" x1="1222" y1="405" x2="1222" y2="505" gradientUnits="userSpaceOnUse">
<stop stop-color="#853CDD"/>
<stop offset="0.648958" stop-color="#2D216C"/>
<stop offset="1" stop-color="#291D5D"/>
</linearGradient>
<linearGradient id="paint6_linear_3_2" x1="992.712" y1="-188.288" x2="992.712" y2="151.712" gradientUnits="userSpaceOnUse">
<stop stop-color="#853CDD"/>
<stop offset="0.648958" stop-color="#2D216C"/>
<stop offset="1" stop-color="#291D5D"/>
</linearGradient>
<linearGradient id="paint7_linear_3_2" x1="1806.91" y1="440.908" x2="1806.91" y2="840.908" gradientUnits="userSpaceOnUse">
<stop stop-color="#8039D5"/>
<stop offset="0.648958" stop-color="#422895"/>
<stop offset="1" stop-color="#291A5D"/>
</linearGradient>
<clipPath id="clip0_3_2">
<rect width="1920" height="1080" fill="white"/>
</clipPath>
</defs>
</svg>
