<svg xmlns="http://www.w3.org/2000/svg" viewBox="0 0 61 61"><defs><style>.cls-1{fill:#fff;}</style></defs><g id="Layer_2" data-name="Layer 2"><g id="Layer_1-2" data-name="Layer 1"><path class="cls-1" d="M45.73,61H36.28a.93.93,0,0,1-.89-1V40.77a1.33,1.33,0,0,0-1.27-1.38H26.8a1.33,1.33,0,0,0-1.27,1.38V60a.94.94,0,0,1-.89,1h-9c-3.46,0-6.28-3.08-6.28-6.86V30.48L6.77,32.89A3.81,3.81,0,0,1,3.8,34,3.93,3.93,0,0,1,1,32.44a4.72,4.72,0,0,1-1-2.93,4.66,4.66,0,0,1,1.42-3.39L27.76,1.18a3.87,3.87,0,0,1,3-1.08,3.92,3.92,0,0,1,2.5,1.09l8.08,7.65V2.25A2.16,2.16,0,0,1,43.39,0H48A2.16,2.16,0,0,1,50,2.25V17.07l9.56,9.05h0A4.66,4.66,0,0,1,61,29.51a4.72,4.72,0,0,1-1,2.93A3.93,3.93,0,0,1,57.2,34a3.79,3.79,0,0,1-3-1.08L52,30.79V54.14C52,57.92,49.19,61,45.73,61Z"/></g></g></svg>