<svg xmlns="http://www.w3.org/2000/svg" viewBox="0 0 60.11 61.07"><defs><style>.cls-1{fill:#fff;stroke:#f1efef;}.cls-2{fill:none;stroke:#d4f4ff;stroke-width:2px;}.cls-3{fill:#9fcdff;}</style></defs><g id="Layer_2" data-name="Layer 2"><g id="Layer_1-2" data-name="Layer 1"><path class="cls-1" d="M.5,7.82V58a2.62,2.62,0,0,0,2.66,2.58H42.61A2.62,2.62,0,0,0,45.27,58V7.82a2.62,2.62,0,0,0-2.66-2.57H3.16A2.62,2.62,0,0,0,.5,7.82Z"/><path class="cls-1" d="M12.11,2.47V6.8a2,2,0,0,0,2,2H31.63a2,2,0,0,0,2-2V2.47a2,2,0,0,0-2-2H14.14A2,2,0,0,0,12.11,2.47Z"/><line class="cls-2" x1="7.21" y1="15.83" x2="39.53" y2="15.97"/><line class="cls-2" x1="7.21" y1="21.11" x2="39.53" y2="21.25"/><rect class="cls-2" x="8.05" y="27.86" width="6.99" height="6.78" rx="0.95"/><rect class="cls-2" x="8.05" y="41.24" width="6.99" height="5.83" rx="1.03"/><path class="cls-3" d="M20.83,51.39l4-9.3a2,2,0,0,1,.37-.56L52.34,12.07a2.08,2.08,0,0,1,2.87-.16l4.22,3.65a1.93,1.93,0,0,1,.14,2.8L33.46,46a2.46,2.46,0,0,1-.51.39l-11,6A.78.78,0,0,1,20.83,51.39Z"/></g></g></svg>