<svg xmlns="http://www.w3.org/2000/svg" viewBox="0 0 368.93 365.66"><defs><style>.cls-1{fill:#fff;}</style></defs><g id="Layer_2" data-name="Layer 2"><g id="Layer_1-2" data-name="Layer 1"><path class="cls-1" d="M102.12,341.07l-60-67L12.21,359.26a4.81,4.81,0,0,0,5.88,6.2Z"/><polygon class="cls-1" points="52.03 262.34 112.12 326.34 180.12 262.34 116.07 196.34 52.03 262.34"/><polygon class="cls-1" points="198.12 117.83 262.12 182.83 309.12 132.83 246.12 68.83 198.12 117.83"/><path class="cls-1" d="M269.05,63l42.76,45.66a12.26,12.26,0,0,0,17.25.64l31.51-29a12.26,12.26,0,0,0,.23-17.82L314,17.13a12.25,12.25,0,0,0-17.39.33l-27.45,28.7A12.25,12.25,0,0,0,269.05,63Z"/><path class="cls-1" d="M23,39.59l33.1,33.75a9.58,9.58,0,0,0,13.89-.24l8.92-9.74a9.57,9.57,0,0,0-.35-13.3L47.93,20.11A9.57,9.57,0,0,1,52.51,3.94c34.93-7.86,113-14.23,106.91,88.27a9.59,9.59,0,0,0,2.83,7.39L274.12,210a9.56,9.56,0,0,0,8.26,2.64C303,209.27,384,202.87,366.45,314.25a9.57,9.57,0,0,1-16,5.44l-27.58-25.82a9.57,9.57,0,0,0-13.31.22l-12.46,12.46a9.57,9.57,0,0,0,.22,13.75l28.1,26.35A9.57,9.57,0,0,1,320.69,363c-32.47,6.26-99.34,8.41-103.43-78.63a9.6,9.6,0,0,0-2.87-6.39c-16-15.62-97.91-98.79-114.38-115.53a9.51,9.51,0,0,0-6.84-2.85C71.92,159.64-26.77,153.9,7,43.51A9.57,9.57,0,0,1,23,39.59Z"/></g></g></svg>